<mxfile host="Electron" agent="Mozilla/5.0 (X11; Linux x86_64) AppleWebKit/537.36 (KHTML, like Gecko) draw.io/26.2.2 Chrome/134.0.6998.178 Electron/35.1.2 Safari/537.36" version="26.2.2">
  <diagram name="Page-1" id="b5b7bab2-c9e2-2cf4-8b2a-24fd1a2a6d21">
    <mxGraphModel dx="923" dy="605" grid="1" gridSize="10" guides="1" tooltips="1" connect="1" arrows="1" fold="1" page="1" pageScale="1" pageWidth="3300" pageHeight="4681" background="none" math="0" shadow="0">
      <root>
        <mxCell id="0" />
        <mxCell id="1" parent="0" />
        <mxCell id="zwgW6ngFuWu30HMtUHn9-33" value="Unite" style="swimlane;whiteSpace=wrap;html=1;fillColor=#e1d5e7;strokeColor=#9673a6;rounded=1;fillStyle=solid;strokeWidth=2;" parent="1" vertex="1">
          <mxGeometry x="410" y="700" width="1130" height="350" as="geometry" />
        </mxCell>
        <mxCell id="zwgW6ngFuWu30HMtUHn9-34" value="Marche" style="swimlane;startSize=20;horizontal=1;containerType=tree;newEdgeStyle={&quot;edgeStyle&quot;:&quot;elbowEdgeStyle&quot;,&quot;startArrow&quot;:&quot;none&quot;,&quot;endArrow&quot;:&quot;none&quot;};rounded=1;labelBackgroundColor=none;fillColor=#d5e8d4;strokeColor=#82b366;swimlaneFillColor=none;strokeWidth=2;" parent="zwgW6ngFuWu30HMtUHn9-33" vertex="1">
          <mxGeometry x="370" y="30" width="370" height="170" as="geometry">
            <mxRectangle x="10" y="30" width="80" height="30" as="alternateBounds" />
          </mxGeometry>
        </mxCell>
        <UserObject label="Si un enemie est proche, essayer de l&#39;attaquer" treeRoot="1" id="zwgW6ngFuWu30HMtUHn9-36">
          <mxCell style="whiteSpace=wrap;html=1;align=center;treeFolding=1;treeMoving=1;newEdgeStyle={&quot;edgeStyle&quot;:&quot;elbowEdgeStyle&quot;,&quot;startArrow&quot;:&quot;none&quot;,&quot;endArrow&quot;:&quot;none&quot;};rounded=1;glass=0;" parent="zwgW6ngFuWu30HMtUHn9-34" vertex="1">
            <mxGeometry x="10" y="30" width="210" height="60" as="geometry" />
          </mxCell>
        </UserObject>
        <UserObject label="Quand j&quot;arrive a destination" treeRoot="1" id="zwgW6ngFuWu30HMtUHn9-40">
          <mxCell style="whiteSpace=wrap;html=1;align=center;treeFolding=1;treeMoving=1;newEdgeStyle={&quot;edgeStyle&quot;:&quot;elbowEdgeStyle&quot;,&quot;startArrow&quot;:&quot;none&quot;,&quot;endArrow&quot;:&quot;none&quot;};rounded=1;glass=0;" parent="zwgW6ngFuWu30HMtUHn9-34" vertex="1">
            <mxGeometry x="10" y="100" width="210" height="60" as="geometry" />
          </mxCell>
        </UserObject>
        <mxCell id="zwgW6ngFuWu30HMtUHn9-41" value="Attente" style="whiteSpace=wrap;html=1;align=center;verticalAlign=middle;treeFolding=1;treeMoving=1;newEdgeStyle={&quot;edgeStyle&quot;:&quot;elbowEdgeStyle&quot;,&quot;startArrow&quot;:&quot;none&quot;,&quot;endArrow&quot;:&quot;none&quot;};shadow=0;rounded=1;fillColor=#fff2cc;strokeColor=#d6b656;" parent="zwgW6ngFuWu30HMtUHn9-34" vertex="1">
          <mxGeometry x="240" y="100" width="100" height="60" as="geometry" />
        </mxCell>
        <mxCell id="zwgW6ngFuWu30HMtUHn9-42" style="edgeStyle=elbowEdgeStyle;rounded=0;orthogonalLoop=1;jettySize=auto;html=1;startArrow=none;endArrow=none;" parent="zwgW6ngFuWu30HMtUHn9-34" source="zwgW6ngFuWu30HMtUHn9-40" target="zwgW6ngFuWu30HMtUHn9-41" edge="1">
          <mxGeometry relative="1" as="geometry" />
        </mxCell>
        <mxCell id="zwgW6ngFuWu30HMtUHn9-57" value="Attente (choix aleatoire)" style="swimlane;startSize=20;horizontal=1;containerType=tree;newEdgeStyle={&quot;edgeStyle&quot;:&quot;elbowEdgeStyle&quot;,&quot;startArrow&quot;:&quot;none&quot;,&quot;endArrow&quot;:&quot;none&quot;};rounded=1;labelBackgroundColor=none;fillColor=#fff2cc;strokeColor=#d6b656;swimlaneFillColor=none;strokeWidth=2;" parent="zwgW6ngFuWu30HMtUHn9-33" vertex="1">
          <mxGeometry x="10" y="30" width="350" height="240" as="geometry" />
        </mxCell>
        <mxCell id="zwgW6ngFuWu30HMtUHn9-58" style="edgeStyle=elbowEdgeStyle;rounded=0;orthogonalLoop=1;jettySize=auto;html=1;startArrow=none;endArrow=none;" parent="zwgW6ngFuWu30HMtUHn9-57" source="zwgW6ngFuWu30HMtUHn9-59" target="zwgW6ngFuWu30HMtUHn9-60" edge="1">
          <mxGeometry relative="1" as="geometry" />
        </mxCell>
        <UserObject label="Choisir une destination aleatoire autour d&#39;une tour" treeRoot="1" id="zwgW6ngFuWu30HMtUHn9-59">
          <mxCell style="whiteSpace=wrap;html=1;align=center;treeFolding=1;treeMoving=1;newEdgeStyle={&quot;edgeStyle&quot;:&quot;elbowEdgeStyle&quot;,&quot;startArrow&quot;:&quot;none&quot;,&quot;endArrow&quot;:&quot;none&quot;};rounded=1;glass=0;" parent="zwgW6ngFuWu30HMtUHn9-57" vertex="1">
            <mxGeometry x="10" y="30" width="210" height="60" as="geometry" />
          </mxCell>
        </UserObject>
        <mxCell id="zwgW6ngFuWu30HMtUHn9-60" value="Marche" style="whiteSpace=wrap;html=1;align=center;verticalAlign=middle;treeFolding=1;treeMoving=1;newEdgeStyle={&quot;edgeStyle&quot;:&quot;elbowEdgeStyle&quot;,&quot;startArrow&quot;:&quot;none&quot;,&quot;endArrow&quot;:&quot;none&quot;};shadow=0;rounded=1;fillColor=#d5e8d4;strokeColor=#82b366;" parent="zwgW6ngFuWu30HMtUHn9-57" vertex="1">
          <mxGeometry x="240" y="30" width="100" height="60" as="geometry" />
        </mxCell>
        <mxCell id="zwgW6ngFuWu30HMtUHn9-67" style="edgeStyle=elbowEdgeStyle;rounded=0;orthogonalLoop=1;jettySize=auto;html=1;startArrow=none;endArrow=none;" parent="zwgW6ngFuWu30HMtUHn9-57" source="zwgW6ngFuWu30HMtUHn9-68" target="zwgW6ngFuWu30HMtUHn9-69" edge="1">
          <mxGeometry relative="1" as="geometry" />
        </mxCell>
        <UserObject label="Choisir une destination au hasard sur la map" treeRoot="1" id="zwgW6ngFuWu30HMtUHn9-68">
          <mxCell style="whiteSpace=wrap;html=1;align=center;treeFolding=1;treeMoving=1;newEdgeStyle={&quot;edgeStyle&quot;:&quot;elbowEdgeStyle&quot;,&quot;startArrow&quot;:&quot;none&quot;,&quot;endArrow&quot;:&quot;none&quot;};rounded=1;glass=0;" parent="zwgW6ngFuWu30HMtUHn9-57" vertex="1">
            <mxGeometry x="10" y="100" width="210" height="60" as="geometry" />
          </mxCell>
        </UserObject>
        <mxCell id="zwgW6ngFuWu30HMtUHn9-69" value="Marche" style="whiteSpace=wrap;html=1;align=center;verticalAlign=middle;treeFolding=1;treeMoving=1;newEdgeStyle={&quot;edgeStyle&quot;:&quot;elbowEdgeStyle&quot;,&quot;startArrow&quot;:&quot;none&quot;,&quot;endArrow&quot;:&quot;none&quot;};shadow=0;rounded=1;fillColor=#d5e8d4;strokeColor=#82b366;" parent="zwgW6ngFuWu30HMtUHn9-57" vertex="1">
          <mxGeometry x="240" y="100" width="100" height="60" as="geometry" />
        </mxCell>
        <mxCell id="2FEYPH3dbzhSgCSSxdkr-27" style="edgeStyle=elbowEdgeStyle;rounded=0;orthogonalLoop=1;jettySize=auto;html=1;startArrow=none;endArrow=none;" edge="1" parent="zwgW6ngFuWu30HMtUHn9-57" source="2FEYPH3dbzhSgCSSxdkr-28" target="2FEYPH3dbzhSgCSSxdkr-29">
          <mxGeometry relative="1" as="geometry" />
        </mxCell>
        <UserObject label="Choisir une cible et aller la tuer." treeRoot="1" id="2FEYPH3dbzhSgCSSxdkr-28">
          <mxCell style="whiteSpace=wrap;html=1;align=center;treeFolding=1;treeMoving=1;newEdgeStyle={&quot;edgeStyle&quot;:&quot;elbowEdgeStyle&quot;,&quot;startArrow&quot;:&quot;none&quot;,&quot;endArrow&quot;:&quot;none&quot;};rounded=1;glass=0;" vertex="1" parent="zwgW6ngFuWu30HMtUHn9-57">
            <mxGeometry x="10" y="170" width="210" height="60" as="geometry" />
          </mxCell>
        </UserObject>
        <mxCell id="2FEYPH3dbzhSgCSSxdkr-29" value="Attaque" style="whiteSpace=wrap;html=1;align=center;verticalAlign=middle;treeFolding=1;treeMoving=1;newEdgeStyle={&quot;edgeStyle&quot;:&quot;elbowEdgeStyle&quot;,&quot;startArrow&quot;:&quot;none&quot;,&quot;endArrow&quot;:&quot;none&quot;};shadow=0;rounded=1;fillColor=#f8cecc;strokeColor=#b85450;" vertex="1" parent="zwgW6ngFuWu30HMtUHn9-57">
          <mxGeometry x="240" y="170" width="100" height="60" as="geometry" />
        </mxCell>
        <mxCell id="2FEYPH3dbzhSgCSSxdkr-1" value="Marche" style="swimlane;startSize=20;horizontal=1;containerType=tree;newEdgeStyle={&quot;edgeStyle&quot;:&quot;elbowEdgeStyle&quot;,&quot;startArrow&quot;:&quot;none&quot;,&quot;endArrow&quot;:&quot;none&quot;};rounded=1;labelBackgroundColor=none;fillColor=#f8cecc;strokeColor=#b85450;swimlaneFillColor=none;strokeWidth=2;" vertex="1" parent="zwgW6ngFuWu30HMtUHn9-33">
          <mxGeometry x="750" y="30" width="370" height="310" as="geometry">
            <mxRectangle x="10" y="30" width="80" height="30" as="alternateBounds" />
          </mxGeometry>
        </mxCell>
        <UserObject label="Definir un nemesis" treeRoot="1" id="2FEYPH3dbzhSgCSSxdkr-2">
          <mxCell style="whiteSpace=wrap;html=1;align=center;treeFolding=1;treeMoving=1;newEdgeStyle={&quot;edgeStyle&quot;:&quot;elbowEdgeStyle&quot;,&quot;startArrow&quot;:&quot;none&quot;,&quot;endArrow&quot;:&quot;none&quot;};rounded=1;glass=0;" vertex="1" parent="2FEYPH3dbzhSgCSSxdkr-1">
            <mxGeometry x="10" y="30" width="210" height="60" as="geometry" />
          </mxCell>
        </UserObject>
        <UserObject label="Essayer de l&#39;attaquer jusqu&#39;a sa mort" treeRoot="1" id="2FEYPH3dbzhSgCSSxdkr-3">
          <mxCell style="whiteSpace=wrap;html=1;align=center;treeFolding=1;treeMoving=1;newEdgeStyle={&quot;edgeStyle&quot;:&quot;elbowEdgeStyle&quot;,&quot;startArrow&quot;:&quot;none&quot;,&quot;endArrow&quot;:&quot;none&quot;};rounded=1;glass=0;" vertex="1" parent="2FEYPH3dbzhSgCSSxdkr-1">
            <mxGeometry x="10" y="100" width="210" height="60" as="geometry" />
          </mxCell>
        </UserObject>
        <UserObject label="Quand j&quot;arrive a destination" treeRoot="1" id="2FEYPH3dbzhSgCSSxdkr-30">
          <mxCell style="whiteSpace=wrap;html=1;align=center;treeFolding=1;treeMoving=1;newEdgeStyle={&quot;edgeStyle&quot;:&quot;elbowEdgeStyle&quot;,&quot;startArrow&quot;:&quot;none&quot;,&quot;endArrow&quot;:&quot;none&quot;};rounded=1;glass=0;" vertex="1" parent="2FEYPH3dbzhSgCSSxdkr-1">
            <mxGeometry x="10" y="240" width="210" height="60" as="geometry" />
          </mxCell>
        </UserObject>
        <mxCell id="2FEYPH3dbzhSgCSSxdkr-31" value="Attente" style="whiteSpace=wrap;html=1;align=center;verticalAlign=middle;treeFolding=1;treeMoving=1;newEdgeStyle={&quot;edgeStyle&quot;:&quot;elbowEdgeStyle&quot;,&quot;startArrow&quot;:&quot;none&quot;,&quot;endArrow&quot;:&quot;none&quot;};shadow=0;rounded=1;fillColor=#fff2cc;strokeColor=#d6b656;" vertex="1" parent="2FEYPH3dbzhSgCSSxdkr-1">
          <mxGeometry x="240" y="240" width="100" height="60" as="geometry" />
        </mxCell>
        <mxCell id="2FEYPH3dbzhSgCSSxdkr-32" style="edgeStyle=elbowEdgeStyle;rounded=0;orthogonalLoop=1;jettySize=auto;html=1;startArrow=none;endArrow=none;" edge="1" parent="2FEYPH3dbzhSgCSSxdkr-1" source="2FEYPH3dbzhSgCSSxdkr-30" target="2FEYPH3dbzhSgCSSxdkr-31">
          <mxGeometry relative="1" as="geometry" />
        </mxCell>
        <UserObject label="Ce deplacer vers un ennemi" treeRoot="1" id="2FEYPH3dbzhSgCSSxdkr-33">
          <mxCell style="whiteSpace=wrap;html=1;align=center;treeFolding=1;treeMoving=1;newEdgeStyle={&quot;edgeStyle&quot;:&quot;elbowEdgeStyle&quot;,&quot;startArrow&quot;:&quot;none&quot;,&quot;endArrow&quot;:&quot;none&quot;};rounded=1;glass=0;" vertex="1" parent="2FEYPH3dbzhSgCSSxdkr-1">
            <mxGeometry x="10" y="170" width="210" height="60" as="geometry" />
          </mxCell>
        </UserObject>
      </root>
    </mxGraphModel>
  </diagram>
</mxfile>
